<svg xmlns="http://www.w3.org/2000/svg" viewBox="0 0 200 200">
    <defs>
        <linearGradient id="p" x1="0" y1="0" x2="1" y2="1">
            <stop offset="0" stop-color="#3B7BD8"/>
            <stop offset="1" stop-color="#1E4A94"/>
        </linearGradient>
        <linearGradient id="c" x1="0" y1="0" x2="0" y2="1">
            <stop offset="0" stop-color="#FCD34D"/>
            <stop offset="1" stop-color="#D97706"/>
        </linearGradient>
    </defs>
    <rect width="200" height="200" rx="40" fill="#F8FAFC"/>
    <path d="M40 80 C40 65 55 55 75 55 L125 55 C145 55 160 65 160 80 L160 150 C160 168 145 178 125 178 L75 178 C55 178 40 168 40 150 Z" fill="url(#p)"/>
    <path d="M35 78 C35 70 45 62 60 62 L140 62 C155 62 165 70 165 78 C165 84 158 88 150 88 L50 88 C42 88 35 84 35 78 Z" fill="#14B8A6"/>
    <path d="M60 130 L88 100 L108 118 L145 78" fill="none" stroke="#14B8A6" stroke-width="10" stroke-linecap="round" stroke-linejoin="round"/>
    <circle cx="118" cy="45" r="16" fill="url(#c)"/>
    <circle cx="82" cy="110" r="14" fill="url(#c)"/>
    <circle cx="112" cy="118" r="13" fill="url(#c)"/>
</svg>
